<?xml version="1.0" standalone="no"?><!DOCTYPE svg PUBLIC "-//W3C//DTD SVG 1.1//EN" "http://www.w3.org/Graphics/SVG/1.1/DTD/svg11.dtd"><svg class="icon" width="200px" height="200.00px" viewBox="0 0 1024 1024" version="1.1" xmlns="http://www.w3.org/2000/svg"><path fill="#515151" d="M964.367 421.647h-798.72V201.186c0-83.125 67.464-150.588 150.588-150.588 83.125 0 150.589 67.463 150.589 150.588 0 10.24 7.83 18.07 18.07 18.07s18.07-7.83 18.07-18.07c0-103.002-83.726-186.73-186.729-186.73-103.002 0-186.73 83.728-186.73 186.73v220.461h-71.68c-25.9 0-47.585 21.082-47.585 47.586s21.082 47.586 47.586 47.586h20.48v218.654c0 106.616 75.896 195.765 176.49 216.245l-74.692 37.346c-9.036 4.216-12.65 15.058-7.831 24.094 3.012 6.626 9.638 10.24 16.263 10.24 3.012 0 5.422-0.603 7.831-1.807l130.108-65.055h402.372l130.108 65.055c2.41 1.204 5.421 1.807 7.83 1.807 6.627 0 13.253-3.614 16.264-10.24 4.217-9.036 0.603-19.878-7.83-24.094L792.696 947.5c92.16-26.503 159.624-111.435 159.624-212.028V516.819h12.65c25.9 0 47.585-21.083 47.585-47.586s-21.684-47.586-48.188-47.586z m-48.79 313.826c0 101.798-82.523 184.32-184.32 184.32h-432.49c-101.798 0-184.32-82.522-184.32-184.32V516.819h801.13v218.654z m48.79-254.795H57.826c-6.024 0-11.445-4.82-11.445-11.445s5.421-11.445 11.445-11.445h906.541c6.024 0 11.445 4.82 11.445 11.445s-4.82 11.445-11.445 11.445zM442.73 231.304l-43.972 27.105c-5.422 3.615-7.229 10.843-4.217 16.866 2.41 3.614 6.024 6.024 10.24 6.024 2.41 0 4.217-0.603 6.024-1.807l43.971-27.106c5.422-3.614 7.229-10.842 4.217-16.866-3.012-6.024-10.24-7.83-16.264-4.216zM512 251.784l43.972 27.105c1.807 1.205 4.216 1.807 6.023 1.807 4.217 0 7.83-1.807 10.24-6.023 3.614-5.421 1.807-13.252-4.216-16.866l-43.972-27.106c-5.421-3.614-13.252-1.807-16.866 4.217-2.41 6.023-0.602 13.251 4.819 16.866zM471.642 261.421v34.937c0 6.626 5.422 12.047 12.047 12.047s12.047-5.421 12.047-12.047V261.42c0-6.626-5.42-12.047-12.047-12.047s-12.047 5.421-12.047 12.047z" /></svg>