<?xml version="1.0" standalone="no"?><!DOCTYPE svg PUBLIC "-//W3C//DTD SVG 1.1//EN" "http://www.w3.org/Graphics/SVG/1.1/DTD/svg11.dtd"><svg class="icon" width="200px" height="200.00px" viewBox="0 0 1024 1024" version="1.1" xmlns="http://www.w3.org/2000/svg"><path fill="#515151" d="M853.44 807.872c0 36.736-28.48 66.496-63.68 66.496H191.36c-35.2 0-63.68-29.76-63.68-66.496V449.28c0-20.992 9.472-40.704 25.6-53.248L452.48 162.88a61.504 61.504 0 0 1 76.16 0l299.2 233.088c16.128 12.544 25.6 32.256 25.6 53.248v358.656zM115.2 342.72A134.976 134.976 0 0 0 64 449.216v358.656c0 73.408 56.96 132.928 127.36 132.928h598.4c70.4 0 127.36-59.52 127.36-132.928V449.28c0-41.92-18.944-81.408-51.2-106.496L566.72 109.568a123.072 123.072 0 0 0-152.32 0L115.2 342.72z"  /><path fill="#515151" d="M604.48 586.624v24.448h144.96v-27.584h-96v-1.28l40.768-35.712c11.52-10.048 20.928-19.008 28.224-26.88 7.296-7.808 12.736-15.36 16.128-22.72a55.168 55.168 0 0 0-3.584-52.992 58.88 58.88 0 0 0-24.448-20.352 83.2 83.2 0 0 0-36.416-7.552c-20.672 0-37.632 5.504-50.944 16.448a52.992 52.992 0 0 0-19.904 43.136h32.64c0-9.728 3.392-17.536 10.304-23.488a39.808 39.808 0 0 1 27.328-9.152c10.624 0 19.584 2.816 26.816 8.32 7.168 5.568 10.816 13.056 10.816 22.4 0 5.504-1.28 10.624-3.84 15.36-2.432 4.864-6.144 9.856-11.072 14.976a316.16 316.16 0 0 1-18.368 17.408L604.48 586.624zM232.32 530.816v240.832h36.992V621.12c0-11.84 2.56-22.208 7.552-31.232a58.048 58.048 0 0 1 20.096-21.312c8.32-5.12 17.28-7.68 26.944-7.68 14.016 0 25.472 4.224 34.368 12.736 8.832 8.32 13.312 19.392 13.312 33.088v164.928h37.632v-156.8c0-15.552 4.672-28.416 13.952-38.592 9.28-10.24 22.4-15.36 39.36-15.36 13.184 0 24.64 3.84 34.368 11.456 9.728 7.68 14.592 20.352 14.592 38.08v161.28h36.992v-161.28c0-28.288-6.848-49.152-20.544-62.528-13.696-13.504-31.36-20.224-52.864-20.224-17.28 0-32 3.712-44.352 11.136a70.144 70.144 0 0 0-27.776 29.632h-2.56a70.72 70.72 0 0 0-24.896-29.952 68.736 68.736 0 0 0-39.68-10.88c-15.68 0-29.12 3.648-40.32 10.88a60.544 60.544 0 0 0-24.32 29.952H268.16v-37.632H232.32z"  /></svg>