<?xml version="1.0" standalone="no"?><!DOCTYPE svg PUBLIC "-//W3C//DTD SVG 1.1//EN" "http://www.w3.org/Graphics/SVG/1.1/DTD/svg11.dtd"><svg class="icon" width="200px" height="200.00px" viewBox="0 0 1024 1024" version="1.1" xmlns="http://www.w3.org/2000/svg"><path fill="#515151" d="M513 933.18A440.89 440.89 0 0 1 341.42 86.26a440.89 440.89 0 0 1 343.16 812.27A437.88 437.88 0 0 1 513 933.18z m0-831.57a390.89 390.89 0 0 0-152.1 750.87 390.89 390.89 0 0 0 304.2-720.17 388.29 388.29 0 0 0-152.1-30.7z"  /><path fill="#515151" d="M677 600.82H230.18a25 25 0 0 1-25-25v-122a25 25 0 0 1 25-25H677a25 25 0 0 1 25 25v122a25 25 0 0 1-25 25z m-421.82-50H652v-72H255.18z"  /><path fill="#515151" d="M355.87 585.82a25 25 0 0 1-25-25v-103a25 25 0 0 1 50 0v103a25 25 0 0 1-25 25zM735.22 578.41a25 25 0 0 1-25-25v-77.18a25 25 0 0 1 50 0v77.18a25 25 0 0 1-25 25zM235.83 811.18a25 25 0 0 1-17.92-42.43l553-568.48a25 25 0 0 1 35.84 34.87l-553 568.47a24.92 24.92 0 0 1-17.92 7.57zM783.67 494.13a38 38 0 0 0 8.72-14.21c4.18-11.91 2.67-25.45-4.5-40.24-31.73-65.4 8.58-105.67 10.31-107.35a26.2 26.2 0 0 1 35.35-0.59 22.42 22.42 0 0 1 0.63 33.14 36.8 36.8 0 0 0-6.25 11.88c-4.16 12.81-2.32 27.45 5.47 43.52 16.5 34 11.88 61.18 5.09 78a85.22 85.22 0 0 1-15 24.37 24.52 24.52 0 0 1-3.54 3.74c-1.11 1.09-2 1.84-2.42 2.23l-0.24-0.26a26.14 26.14 0 0 1-14.18 4.13c-13.84 0-25-10.52-25-23.49a22.51 22.51 0 0 1 5.89-15.11 2.85 2.85 0 0 0-0.33 0.24z"  /></svg>