<?xml version="1.0" standalone="no"?><!DOCTYPE svg PUBLIC "-//W3C//DTD SVG 1.1//EN" "http://www.w3.org/Graphics/SVG/1.1/DTD/svg11.dtd"><svg class="icon" width="200px" height="200.00px" viewBox="0 0 1024 1024" version="1.1" xmlns="http://www.w3.org/2000/svg"><path fill="#515151" d="M208.896 788.961882v99.147294c0 19.817412-11.866353 31.683765-27.708235 31.683765-15.902118 0-27.768471-15.841882-27.768471-31.683765v-99.147294h55.476706z m658.130824 0v99.147294c0 19.817412-11.866353 31.683765-27.708236 31.683765-15.902118 0-27.768471-15.841882-27.76847-31.683765v-99.147294h55.476706z m0-364.724706H153.419294c-43.610353 0-79.329882 39.634824-79.329882 87.220706v194.258824c0 47.585882 35.719529 87.220706 79.329882 87.220706h713.60753c43.610353 0 79.329882-39.634824 79.329882-87.220706v-190.34353c0-51.501176-35.719529-91.136-79.329882-91.136z m19.877647 281.47953c0 11.866353-7.951059 19.817412-19.877647 19.817412H153.419294c-11.926588 0-19.877647-7.951059-19.877647-19.877647V511.518118c0-11.926588 7.951059-19.877647 19.877647-19.877647h713.60753c11.926588 0 19.877647 7.951059 19.877647 19.877647v194.258823z m-226.002824-428.212706H351.653647c-31.744 0-59.512471 27.768471-59.512471 63.427765v87.220706h59.512471V340.931765h313.223529v87.220706h59.452236V340.931765c-3.975529-35.659294-27.768471-63.427765-63.427765-63.427765z"  /><path fill="#515151" d="M791.732706 138.782118H228.713412c-43.610353 0-79.269647 39.634824-79.269647 87.220706v202.149647h59.452235V226.002824c0-11.926588 7.951059-19.877647 19.877647-19.877648h558.983529c11.866353 0 19.817412 7.951059 19.817412 19.877648v202.149647h59.452236V226.002824c0-47.585882-31.683765-87.220706-75.294118-87.220706z"  /></svg>