<?xml version="1.0" standalone="no"?><!DOCTYPE svg PUBLIC "-//W3C//DTD SVG 1.1//EN" "http://www.w3.org/Graphics/SVG/1.1/DTD/svg11.dtd"><svg class="icon" width="200px" height="200.00px" viewBox="0 0 1024 1024" version="1.1" xmlns="http://www.w3.org/2000/svg"><path fill="#515151" d="M927.8 550.4c-18.7 0-33.8 15.1-33.8 33.8v50.7H772.5V165.7c0-55.9-45.5-101.4-101.4-101.4h-315c-55.9 0-101.4 45.5-101.4 101.4v469.1H133.3v-50.7c0-18.7-15.1-33.8-33.8-33.8s-33.8 15.1-33.8 33.8v319.1c0 31.1 25.3 56.3 56.3 56.3h783.3c31.1 0 56.3-25.3 56.3-56.3v-319c0-18.7-15.2-33.8-33.8-33.8zM322.3 165.7c0-18.6 15.2-33.8 33.8-33.8h315c18.6 0 33.8 15.2 33.8 33.8v469.1H322.3V165.7zM133.3 892V702.4h121.5V892H133.3z m189-189.6h157.5V892H322.3V702.4zM547.4 892V702.4h157.5V892H547.4z m346.6 0H772.5V702.4H894V892zM631.3 288.2l-135 161.4c-8 9.5-6.7 23.8 2.8 31.7 4.2 3.5 9.3 5.2 14.4 5.2 6.4 0 12.8-2.7 17.3-8.1l135-161.4c8-9.5 6.7-23.8-2.8-31.7-9.5-7.9-23.7-6.6-31.7 2.9z" /></svg>